Coordinates
version=1
nRows=4
nColumns=63
inDegrees=yes

Units are S.I. units (second, meters, Newtons, ...)
If the header above contains a line with 'inDegrees', this indicates whether rotational values are in degrees (yes) or radians (no).

endheader
time	pelvis_tilt	pelvis_list	pelvis_rotation	pelvis_tx	pelvis_ty	pelvis_tz	hip_flexion_r	hip_adduction_r	hip_rotation_r	knee_angle_r	knee_angle_r_beta	ankle_angle_r	subtalar_angle_r	mtp_angle_r	hip_flexion_l	hip_adduction_l	hip_rotation_l	knee_angle_l	knee_angle_l_beta	ankle_angle_l	subtalar_angle_l	mtp_angle_l	L5_S1_Flex_Ext	L5_S1_Lat_Bending	L5_S1_axial_rotation	L4_L5_Flex_Ext	L4_L5_Lat_Bending	L4_L5_axial_rotation	L3_L4_Flex_Ext	L3_L4_Lat_Bending	L3_L4_axial_rotation	L2_L3_Flex_Ext	L2_L3_Lat_Bending	L2_L3_axial_rotation	L1_L2_Flex_Ext	L1_L2_Lat_Bending	L1_L2_axial_rotation	L1_T12_Flex_Ext	L1_T12_Lat_Bending	L1_T12_axial_rotation	Abs_r3	Abs_r2	Abs_r1	Abs_t1	Abs_t2	neck_flexion	neck_bending	neck_rotation	arm_flex_r	arm_add_r	arm_rot_r	elbow_flex_r	pro_sup_r	wrist_flex_r	wrist_dev_r	arm_flex_l	arm_add_l	arm_rot_l	elbow_flex_l	pro_sup_l	wrist_flex_l	wrist_dev_l
      2.50980392	      6.29965547	     -2.06733687	     90.30823488	      0.20421539	      0.79167764	      0.70959855	     -0.12591432	      5.11336782	     20.92317258	      0.31414014	      0.00548278	     28.97626701	    -16.85861920	      0.00000000	     -0.59534398	     -4.21798443	     13.17749387	      2.02703658	      0.03537846	     34.41957961	    -15.76793987	      0.00000000	     -0.13777786	      0.32508543	      0.74803949	     -0.25586726	      0.43236362	      0.79479196	     -0.22635524	      0.79041271	      0.79479196	     -0.15746631	      0.79041271	      0.65453456	     -0.12794052	      0.66291421	      0.60778209	     -0.07872627	      0.50355733	      0.56102962	     -0.98413345	      3.67743140	      4.16037124	      0.00000000	      0.00000000	     28.05501843	     -4.76309199	     -4.55116108	      5.29122941	    -15.18410133	     35.61240218	     26.16735332	     76.71079180	     -9.00365006	     -5.05532623	      9.63178261	    -15.00542393	     60.02546831	     25.74738986	     88.81380220	    -19.33313658	     -5.09894354
      2.52941176	      6.29728330	     -1.89890324	     90.26830997	      0.20416074	      0.79198274	      0.70774896	     -0.39683781	      5.12434178	     21.08341529	      0.31345680	      0.00547085	     29.19827119	    -16.79257749	      0.00000000	     -0.84133191	     -4.19098888	     13.07910553	      2.13028506	      0.03718049	     34.49378085	    -15.82389683	      0.00000000	     -0.12419630	      0.32178284	      0.74732808	     -0.23064494	      0.42797117	      0.79403608	     -0.20404210	      0.78238279	      0.79403608	     -0.14194395	      0.78238279	      0.65391207	     -0.11532868	      0.65617956	      0.60720406	     -0.07096576	      0.49844162	      0.56049606	     -0.88712173	      3.64007182	      4.15641456	      0.00000000	      0.00000000	     28.02611937	     -4.71681065	     -4.56795652	      5.14249217	    -15.19545442	     35.60894767	     26.14180964	     76.66049156	     -8.96549278	     -5.01327675	      9.36408990	    -15.07714186	     60.09803275	     25.70276494	     88.82786973	    -19.30450147	     -5.10717577
      2.54901961	      6.14761052	     -1.42872783	     89.73184240	      0.20475249	      0.79275154	      0.70618971	     -0.97100718	      4.97425373	     21.65900234	      0.32435465	      0.00566106	     29.49832082	    -16.51628326	      0.00000000	     -1.43286480	     -3.99333960	     12.49734278	      2.33103509	      0.04068424	     34.68809545	    -15.90925601	      0.00000000	     -0.17604511	      0.29885725	      0.83637268	     -0.32693338	      0.39748014	      0.88864597	     -0.28922451	      0.72664151	      0.88864597	     -0.20120196	      0.72664151	      0.73182609	     -0.16347549	      0.60942970	      0.67955280	     -0.10059218	      0.46292988	      0.62727951	     -1.25747262	      3.38073296	      4.65165393	      0.00000000	      0.00000000	     27.97689853	     -4.31154015	     -4.41835134	      5.14919451	    -15.21218967	     35.67339556	     26.23147403	     76.51769924	     -8.73848965	     -4.83596788	      9.35096241	    -15.18479992	     60.13257287	     25.65743642	     88.81396704	    -19.22615957	     -5.18305832
      2.56862745	      6.00206196	     -1.26563835	     89.04213773	      0.20567177	      0.79321467	      0.70456461	     -1.23224662	      4.83599512	     22.38044341	      0.33958619	      0.00592690	     29.50501883	    -16.49445395	      0.00000000	     -1.82027001	     -3.80259498	     11.32338846	      2.26739318	      0.03957348	     34.75774003	    -15.68492616	      0.00000000	     -0.17623639	      0.27401037	      0.95316214	     -0.32728859	      0.36443379	      1.01273477	     -0.28953876	      0.66622881	      1.01273477	     -0.20142057	      0.66622881	      0.83401687	     -0.16365311	      0.55876194	      0.77444424	     -0.10070147	      0.42444206	      0.71487160	     -1.25883889	      3.09966009	      5.30120185	      0.00000000	      0.00000000	     27.96017601	     -3.59820681	     -3.81201197	      5.23316130	    -15.19598676	     36.39074132	     26.05580655	     76.76972577	     -8.85793197	     -4.82456873	      9.38301430	    -15.25102148	     60.42558034	     25.40239530	     88.78954269	    -18.96971998	     -5.16757702
